<?xml version="1.0" encoding="utf-8"?>
<!-- Generator: Adobe Illustrator 23.0.0, SVG Export Plug-In . SVG Version: 6.00 Build 0)  -->
<svg version="1.1" id="Capa_1" xmlns="http://www.w3.org/2000/svg" xmlns:xlink="http://www.w3.org/1999/xlink" x="0px" y="0px"
	 viewBox="0 0 256 256" style="enable-background:new 0 0 256 256;" xml:space="preserve">
<style type="text/css">
	.st0{fill:#42AB7B;}
	.st1{fill:#FFFFFF;}
	.st2{fill:#CFD8DC;}
	.st3{fill:#F2F2F2;}
	.st4{fill:#38A4DD;}
	.st5{fill-rule:evenodd;clip-rule:evenodd;fill:#38A4DD;}
	.st6{fill:#41B2E6;}
	.st7{fill:#0B77BD;}
	.st8{fill:#1787C9;}
	.st9{fill-rule:evenodd;clip-rule:evenodd;fill:#CFD8DC;}
	.st10{fill-rule:evenodd;clip-rule:evenodd;fill:#B0BEC5;}
</style>
<rect y="0" class="st0" width="256" height="256"/>
<circle class="st1" cx="128" cy="128" r="110.58"/>
<path class="st2" d="M73.17,64.49H180.3c3.41,0,6.17,2.76,6.17,6.17v125.5c0,3.41-2.76,6.17-6.17,6.17H73.17
	c-3.41,0-6.17-2.76-6.17-6.17V70.66C67,67.25,69.76,64.49,73.17,64.49z"/>
<path class="st3" d="M73.05,81.95h109.29c2.78,0,5.03,2.25,5.03,5.03v109.29c0,2.78-2.25,5.03-5.03,5.03H73.05
	c-2.78,0-5.03-2.25-5.03-5.03V86.98C68.02,84.2,70.27,81.95,73.05,81.95z"/>
<rect x="68.02" y="63.58" class="st4" width="119.35" height="28"/>
<path class="st5" d="M187.37,91.58l1.62-1.95l-1.92-0.35L187.37,91.58z"/>
<path class="st5" d="M69.64,61.63l-1.6,1.96l1.91,0.33L69.64,61.63z"/>
<rect x="69.64" y="61.63" class="st6" width="119.35" height="28"/>
<g transform="matrix(1.1718 0 0 1.1718 -177.31 61.426)">
	<path class="st7" d="M227.69-5.93h8.4c0.89,0,1.61,0.72,1.61,1.61v16.58c0,0.89-0.72,1.61-1.61,1.61h-8.4
		c-0.89,0-1.61-0.72-1.61-1.61V-4.31C226.07-5.2,226.8-5.93,227.69-5.93z"/>
	<path class="st7" d="M285.31-5.93h8.4c0.89,0,1.61,0.72,1.61,1.61v16.58c0,0.89-0.72,1.61-1.61,1.61h-8.4
		c-0.89,0-1.61-0.72-1.61-1.61V-4.31C283.69-5.2,284.42-5.93,285.31-5.93z"/>
</g>
<path class="st8" d="M90.31,53.67h9.84c1.04,0,1.89,0.85,1.89,1.89v19.43c0,1.04-0.85,1.89-1.89,1.89h-9.84
	c-1.04,0-1.89-0.85-1.89-1.89V55.56C88.42,54.52,89.26,53.67,90.31,53.67z"/>
<path class="st8" d="M157.83,53.67h9.84c1.04,0,1.89,0.85,1.89,1.89v19.43c0,1.04-0.85,1.89-1.89,1.89h-9.84
	c-1.04,0-1.89-0.85-1.89-1.89V55.56C155.93,54.52,156.78,53.67,157.83,53.67z"/>
<path class="st9" d="M187.4,174.64l-13.48,26.66H182c2.99,0,5.4-2.41,5.4-5.4V174.64z"/>
<path class="st10" d="M187.41,174.64l-13.5,26.65l-4.79-6.51c-1.77-2.41-1.26-5.77,1.15-7.55L187.41,174.64z"/>
<g>
	<path class="st0" d="M94.29,171.2h-8.82c-0.67,0-1.01-0.38-1.01-1.13v-44.54c0-0.71,0.34-1.07,1.01-1.07h8.82
		c0.71,0,1.07,0.36,1.07,1.07v2.14c0,0.71-0.36,1.07-1.07,1.07H90.2c-0.46,0-0.69,0.23-0.69,0.69v36.86c0,0.42,0.23,0.63,0.69,0.63
		h4.09c0.71,0,1.07,0.36,1.07,1.07v2.14C95.36,170.84,95.01,171.2,94.29,171.2z"/>
	<path class="st0" d="M122.9,160.68v3.28c0,0.67-0.38,1.01-1.13,1.01h-9.26c-3.11,0-5.51-0.86-7.21-2.58s-2.55-4.12-2.55-7.18v-12.6
		c0-3.11,0.85-5.51,2.55-7.21c1.7-1.7,4.1-2.55,7.21-2.55h9.26c0.76,0,1.13,0.36,1.13,1.07v3.28c0,0.67-0.38,1.01-1.13,1.01h-8.38
		c-3.02,0-4.54,1.55-4.54,4.66v12.1c0,3.11,1.51,4.66,4.54,4.66h8.38C122.52,159.61,122.9,159.97,122.9,160.68z"/>
	<path class="st0" d="M132.66,175.17h-3.34c-0.71,0-1.07-0.36-1.07-1.07v-3.21c0-0.76,0.36-1.13,1.07-1.13h1.45
		c2.56,0,4.34-0.5,5.32-1.51c0.99-1.01,1.82-2.67,2.49-4.98h-2.52c-0.63,0-1.07-0.36-1.32-1.07l-8.38-28.29
		c-0.17-0.71,0.1-1.07,0.82-1.07h4.22c0.67,0,1.09,0.36,1.26,1.07l6.87,24.7h0.25l6.87-24.7c0.13-0.71,0.55-1.07,1.26-1.07h4.03
		c0.8,0,1.13,0.38,1.01,1.13l-8.63,30.3c-0.97,3.53-2.33,6.23-4.09,8.1C138.46,174.23,135.94,175.17,132.66,175.17z"/>
	<path class="st0" d="M158.11,170.13v-2.14c0-0.71,0.36-1.07,1.07-1.07h4.09c0.46,0,0.69-0.21,0.69-0.63v-36.86
		c0-0.46-0.23-0.69-0.69-0.69h-4.09c-0.71,0-1.07-0.36-1.07-1.07v-2.14c0-0.71,0.36-1.07,1.07-1.07H168c0.67,0,1.01,0.36,1.01,1.07
		v44.54c0,0.76-0.34,1.13-1.01,1.13h-8.82C158.47,171.2,158.11,170.84,158.11,170.13z"/>
</g>
</svg>
